<svg width="284" height="119" viewBox="0 0 284 119" fill="none" xmlns="http://www.w3.org/2000/svg">
<path d="M3.12 90H14.52C17.5067 90 19.76 90.6933 21.28 92.08C22.8 93.4667 23.56 95.5333 23.56 98.28V100.04C23.56 102.68 22.7867 104.68 21.24 106.04C19.72 107.4 17.48 108.08 14.52 108.08H7.84V104.6H13.04C14.9867 104.6 16.4267 104.187 17.36 103.36C18.32 102.533 18.8 101.28 18.8 99.6V98.68C18.8 96.8933 18.3333 95.5867 17.4 94.76C16.4667 93.9333 15.0133 93.52 13.04 93.52H6.96L8.08 92.24V118H3.12V90ZM14.16 107.04L19.08 107L24.04 118H18.96L14.16 107.04ZM39.385 118.36C37.145 118.36 35.225 117.987 33.625 117.24C32.0517 116.467 30.8383 115.36 29.985 113.92C29.1583 112.48 28.745 110.733 28.745 108.68V105.72C28.745 103.693 29.185 101.96 30.065 100.52C30.9717 99.08 32.2517 97.9733 33.905 97.2C35.5583 96.4267 37.5317 96.04 39.825 96.04C43.345 96.04 46.0517 96.96 47.945 98.8C49.8383 100.613 50.785 103.2 50.785 106.56V108.44H32.785V105.92H46.865L46.145 106.92V105.44C46.145 103.6 45.585 102.16 44.465 101.12C43.3717 100.08 41.865 99.56 39.945 99.56C37.9983 99.56 36.465 100.093 35.345 101.16C34.2517 102.2 33.705 103.667 33.705 105.56V109.2C33.705 111.093 34.2383 112.547 35.305 113.56C36.3717 114.573 37.8517 115.08 39.745 115.08C41.425 115.08 42.7717 114.733 43.785 114.04C44.825 113.347 45.4917 112.387 45.785 111.16L50.505 111.48C49.9183 113.693 48.6517 115.4 46.705 116.6C44.785 117.773 42.345 118.36 39.385 118.36ZM70.4369 110.56V104.48C70.4369 102.827 69.9435 101.613 68.9569 100.84C67.9702 100.067 66.4369 99.68 64.3569 99.68C63.0502 99.68 61.7435 99.8533 60.4369 100.2C59.1569 100.547 57.9435 101.04 56.7969 101.68L56.1169 98.24C56.9435 97.7867 57.8902 97.4 58.9569 97.08C60.0235 96.76 61.1302 96.5067 62.2769 96.32C63.4502 96.1333 64.5569 96.04 65.5969 96.04C68.9302 96.04 71.4235 96.7467 73.0769 98.16C74.7302 99.5467 75.5569 101.653 75.5569 104.48V118H71.7169L70.4369 110.56ZM63.3969 118.36C60.9169 118.36 58.9702 117.813 57.5569 116.72C56.1702 115.6 55.4769 114.067 55.4769 112.12V111.24C55.4769 109.267 56.1835 107.733 57.5969 106.64C59.0369 105.52 61.0369 104.96 63.5969 104.96C66.2902 104.96 68.4102 105.493 69.9569 106.56C71.5035 107.627 72.2769 109.133 72.2769 111.08V112C72.2769 114 71.4902 115.56 69.9169 116.68C68.3435 117.8 66.1702 118.36 63.3969 118.36ZM64.7969 115.68C66.5035 115.68 67.8502 115.32 68.8369 114.6C69.8235 113.88 70.3169 112.92 70.3169 111.72V111.24C70.3169 110.093 69.8502 109.2 68.9169 108.56C67.9835 107.92 66.6635 107.6 64.9569 107.6C63.4102 107.6 62.2102 107.907 61.3569 108.52C60.5035 109.133 60.0769 110.08 60.0769 111.36V111.84C60.0769 113.067 60.4902 114.013 61.3169 114.68C62.1435 115.347 63.3035 115.68 64.7969 115.68ZM90.835 118.36C87.9017 118.36 85.6217 117.52 83.995 115.84C82.395 114.16 81.595 111.773 81.595 108.68V105.72C81.595 102.653 82.4083 100.28 84.035 98.6C85.6617 96.8933 87.9683 96.04 90.955 96.04C93.0617 96.04 94.9017 96.4667 96.475 97.32C98.0483 98.1467 99.2617 99.32 100.115 100.84C100.995 102.36 101.435 104.187 101.435 106.32V107.92C101.435 110.053 100.995 111.907 100.115 113.48C99.235 115.027 97.995 116.227 96.395 117.08C94.8217 117.933 92.9683 118.36 90.835 118.36ZM92.155 114.76C94.3683 114.76 96.1017 114.133 97.355 112.88C98.635 111.6 99.275 109.853 99.275 107.64V106.72C99.275 104.533 98.635 102.827 97.355 101.6C96.1017 100.347 94.3683 99.72 92.155 99.72C90.395 99.72 89.0217 100.28 88.035 101.4C87.0483 102.493 86.555 104.04 86.555 106.04V108.44C86.555 110.413 87.0483 111.96 88.035 113.08C89.0483 114.2 90.4217 114.76 92.155 114.76ZM99.275 111.28V88.4H104.235V118H101.115L99.275 111.28ZM122.237 118.36C119.811 118.36 117.744 117.92 116.037 117.04C114.357 116.16 113.077 114.867 112.197 113.16C111.317 111.427 110.877 109.32 110.877 106.84V100.96C110.877 98.56 111.317 96.52 112.197 94.84C113.104 93.1333 114.397 91.84 116.077 90.96C117.784 90.08 119.851 89.64 122.277 89.64C125.637 89.64 128.251 90.3867 130.117 91.88C131.984 93.3733 133.171 95.56 133.677 98.44L128.877 98.92C128.531 96.9733 127.837 95.5467 126.797 94.64C125.757 93.7067 124.317 93.24 122.477 93.24C120.317 93.24 118.664 93.8933 117.517 95.2C116.397 96.48 115.837 98.4267 115.837 101.04V106.76C115.837 109.453 116.384 111.467 117.477 112.8C118.597 114.107 120.251 114.76 122.437 114.76C124.357 114.76 125.851 114.253 126.917 113.24C128.011 112.2 128.704 110.653 128.997 108.6L133.757 109.08C133.331 112.067 132.157 114.36 130.237 115.96C128.344 117.56 125.677 118.36 122.237 118.36ZM155.985 106C155.985 103.867 155.558 102.307 154.705 101.32C153.878 100.333 152.571 99.84 150.785 99.84C148.731 99.84 147.145 100.547 146.025 101.96C144.931 103.347 144.385 105.373 144.385 108.04L142.505 111L142.545 108.4C142.545 104.427 143.425 101.373 145.185 99.24C146.945 97.1067 149.451 96.04 152.705 96.04C155.531 96.04 157.611 96.8 158.945 98.32C160.278 99.8133 160.945 102.16 160.945 105.36V118H155.985V106ZM139.425 88.4H144.385V103.24V118H139.425V88.4ZM177.487 118.36C175.247 118.36 173.327 117.987 171.727 117.24C170.153 116.467 168.94 115.36 168.087 113.92C167.26 112.48 166.847 110.733 166.847 108.68V105.72C166.847 103.693 167.287 101.96 168.167 100.52C169.073 99.08 170.353 97.9733 172.007 97.2C173.66 96.4267 175.633 96.04 177.927 96.04C181.447 96.04 184.153 96.96 186.047 98.8C187.94 100.613 188.887 103.2 188.887 106.56V108.44H170.887V105.92H184.967L184.247 106.92V105.44C184.247 103.6 183.687 102.16 182.567 101.12C181.473 100.08 179.967 99.56 178.047 99.56C176.1 99.56 174.567 100.093 173.447 101.16C172.353 102.2 171.807 103.667 171.807 105.56V109.2C171.807 111.093 172.34 112.547 173.407 113.56C174.473 114.573 175.953 115.08 177.847 115.08C179.527 115.08 180.873 114.733 181.887 114.04C182.927 113.347 183.593 112.387 183.887 111.16L188.607 111.48C188.02 113.693 186.753 115.4 184.807 116.6C182.887 117.773 180.447 118.36 177.487 118.36ZM205.049 118.36C202.809 118.36 200.876 117.973 199.249 117.2C197.622 116.427 196.369 115.32 195.489 113.88C194.636 112.413 194.209 110.68 194.209 108.68V105.72C194.209 103.747 194.649 102.04 195.529 100.6C196.409 99.1333 197.662 98.0133 199.289 97.24C200.916 96.44 202.836 96.04 205.049 96.04C208.329 96.04 210.942 96.7733 212.889 98.24C214.862 99.68 215.982 101.653 216.249 104.16L211.489 104.52C211.196 102.92 210.529 101.693 209.489 100.84C208.476 99.9867 207.089 99.56 205.329 99.56C203.436 99.56 201.929 100.107 200.809 101.2C199.716 102.293 199.169 103.787 199.169 105.68V108.72C199.169 110.613 199.716 112.107 200.809 113.2C201.902 114.293 203.409 114.84 205.329 114.84C207.062 114.84 208.449 114.413 209.489 113.56C210.529 112.707 211.196 111.48 211.489 109.88L216.249 110.24C215.982 112.747 214.862 114.733 212.889 116.2C210.916 117.64 208.302 118.36 205.049 118.36ZM222.667 111.16L235.187 96.4H240.907L225.867 114.16L222.667 111.16ZM221.747 88.4H226.707V118H221.747V88.4ZM229.147 107.44L232.707 104.92L241.067 118H235.947L229.147 107.44ZM253.214 90H260.974L270.574 118H265.534L257.174 93.24H257.014L248.654 118H243.614L253.214 90ZM250.014 107.64H264.174V111.16H250.014V107.64ZM280.807 90V118H275.847V90H280.807Z" fill="#011D47"/>
<path d="M41 64.5C41.5 68.5 52 80 52 80C52 80 41.6122 84.6421 34.5 85.5C26.9172 86.4147 15 84 15 84C15 84 25.559 77.0504 28 70C29.9804 64.28 28 54.5 28 54.5C28 54.5 26 64.5 20.5 73C15 81.5 2 84 2 84L7 60C7 60 10.5 47.5 14 43C17.5 38.5 13 34 14 27C15 20 20.5 14.5 20.5 14.5C20.5 14.5 16.6149 11.0022 15.5 8C14.4103 5.06552 15 0 15 0C15 0 19 3.1844 22.5 4.5C26 5.8156 30 7 30 7C30 7 41.5883 1.6012 49.5 1.5C57.7882 1.39399 70 7 70 7L83.5 0C83.5 0 84.4371 5.01964 83.5 8C82.574 10.9452 79 14.5 79 14.5C79 14.5 82.2832 18.8084 83.5 22C85.1134 26.2319 85 33.5 85 33.5L62 64.5C62 64.5 56 57 54 55.5C52 54 47.5737 53.4225 44.5 55.5C41.3756 57.6118 40.5 60.5 41 64.5Z" fill="#001D46"/>
<path d="M47.5 31.5C47.5 39.7843 41.232 46.5 33.5 46.5C25.768 46.5 19.5 39.7843 19.5 31.5C19.5 23.2157 25.768 16.5 33.5 16.5C41.232 16.5 47.5 23.2157 47.5 31.5Z" fill="white"/>
<path d="M80.5 30.5C80.5 38.7843 74.232 45.5 66.5 45.5C58.768 45.5 52.5 38.7843 52.5 30.5C52.5 22.2157 58.768 15.5 66.5 15.5C74.232 15.5 80.5 22.2157 80.5 30.5Z" fill="white"/>
<path d="M45.5006 63.9998C45.0014 62.9998 44.9809 59.3242 47.0006 57.9998C48.6335 56.9291 51.0014 56.9998 52.0006 57.9998C52.9999 58.9999 62.0006 71.4998 62.0006 71.4998C62.0006 71.4998 94.5 27.9999 95.5006 26.9998C96.5012 25.9998 98.8916 25.8936 100.501 26.9998C102.335 28.2611 102.501 31.4998 102.001 32.4998C101.5 33.4999 68.0006 77.9998 68.0006 77.9998C68.0006 77.9998 64.8115 82.1715 62.0006 81.9998C59.994 81.8773 57.5006 79.4998 57.5006 79.4998C57.5006 79.4998 45.9999 64.9999 45.5006 63.9998Z" fill="#4A966E"/>
<path d="M56.5 39.0556C56.5 43.0443 53.2907 48.5 50 48.5C46.7093 48.5 43.5 43.0443 43.5 39.0556C43.5 35.0668 46.7093 33.5 50 33.5C53.2907 33.5 56.5 35.0668 56.5 39.0556Z" fill="#D97822"/>
<path d="M42.5 32C42.5 35.5899 39.5899 38.5 36 38.5C32.4101 38.5 29.5 35.5899 29.5 32C29.5 28.4101 32.4101 25.5 36 25.5C39.5899 25.5 42.5 28.4101 42.5 32Z" fill="#001D46"/>
<path d="M39.5 30C39.5 30.8284 38.8284 31.5 38 31.5C37.1716 31.5 36.5 30.8284 36.5 30C36.5 29.1716 37.1716 28.5 38 28.5C38.8284 28.5 39.5 29.1716 39.5 30Z" fill="white"/>
<path d="M71.5 32C71.5 35.5899 68.5899 38.5 65 38.5C61.4101 38.5 58.5 35.5899 58.5 32C58.5 28.4101 61.4101 25.5 65 25.5C68.5899 25.5 71.5 28.4101 71.5 32Z" fill="#001D46"/>
<path d="M68.5 30C68.5 30.8284 67.8284 31.5 67 31.5C66.1716 31.5 65.5 30.8284 65.5 30C65.5 29.1716 66.1716 28.5 67 28.5C67.8284 28.5 68.5 29.1716 68.5 30Z" fill="white"/>
</svg>
